<svg width="21" height="21" viewBox="0 0 21 21" fill="none" xmlns="http://www.w3.org/2000/svg">
<g clip-path="url(#clip0)">
<path d="M20.1042 10.5275C20.1042 4.97583 15.6038 0.475342 10.0521 0.475342C4.50048 0.475342 0 4.97583 0 10.5275C0 15.5447 3.67589 19.7034 8.48148 20.4575V13.4332H5.92918V10.5275H8.48148V8.31285C8.48148 5.79354 9.98223 4.40195 12.2783 4.40195C13.3778 4.40195 14.5285 4.59828 14.5285 4.59828V7.07205H13.2609C12.0123 7.07205 11.6228 7.84696 11.6228 8.64269V10.5275H14.4107L13.965 13.4332H11.6228V20.4575C16.4283 19.7034 20.1042 15.5447 20.1042 10.5275Z" fill="#1877F2"/>
<path d="M13.965 13.4331L14.4107 10.5274H11.6228V8.64259C11.6228 7.84765 12.0123 7.07195 13.2609 7.07195H14.5285V4.59819C14.5285 4.59819 13.3782 4.40186 12.2783 4.40186C9.98223 4.40186 8.48148 5.79345 8.48148 8.31276V10.5274H5.92918V13.4331H8.48148V20.4574C9.52225 20.6202 10.582 20.6202 11.6228 20.4574V13.4331H13.965Z" fill="white"/>
</g>
<defs>
<clipPath id="clip0">
<rect width="20.1042" height="20.1042" fill="white" transform="translate(0 0.475342)"/>
</clipPath>
</defs>
</svg>
