<svg width="18" height="21" viewBox="0 0 18 21" fill="none" xmlns="http://www.w3.org/2000/svg">
<path d="M11.3179 21H3.34107C1.49875 21 0 19.5281 0 17.7188V6.60352C0 4.79418 1.49875 3.32227 3.34107 3.32227H11.3179C13.1602 3.32227 14.6589 4.79418 14.6589 6.60352V17.7188C14.6589 19.5281 13.1602 21 11.3179 21ZM3.34107 4.96289C2.41999 4.96289 1.67053 5.69893 1.67053 6.60352V17.7188C1.67053 18.6233 2.41999 19.3594 3.34107 19.3594H11.3179C12.2389 19.3594 12.9884 18.6233 12.9884 17.7188V6.60352C12.9884 5.69893 12.2389 4.96289 11.3179 4.96289H3.34107ZM18 15.668V3.28125C18 1.47192 16.5013 0 14.6589 0H5.38747C4.92612 0 4.5522 0.367218 4.5522 0.820312C4.5522 1.27341 4.92612 1.64062 5.38747 1.64062H14.6589C15.58 1.64062 16.3295 2.37666 16.3295 3.28125V15.668C16.3295 16.1211 16.7034 16.4883 17.1647 16.4883C17.6261 16.4883 18 16.1211 18 15.668Z" fill="white"/>
</svg>
