<svg width="21" height="21" viewBox="0 0 21 21" fill="none" xmlns="http://www.w3.org/2000/svg">
<g clip-path="url(#clip0)">
<path d="M19.2548 0.475342H2.11876C1.72515 0.475342 1.34767 0.6317 1.06935 0.91002C0.791033 1.18834 0.634674 1.56582 0.634674 1.95943V19.0955C0.634674 19.4891 0.791033 19.8666 1.06935 20.1449C1.34767 20.4232 1.72515 20.5796 2.11876 20.5796H19.2548C19.6484 20.5796 20.0259 20.4232 20.3042 20.1449C20.5826 19.8666 20.7389 19.4891 20.7389 19.0955V1.95943C20.7389 1.56582 20.5826 1.18834 20.3042 0.91002C20.0259 0.6317 19.6484 0.475342 19.2548 0.475342ZM6.62685 17.6016H3.60424V8.00047H6.62685V17.6016ZM5.11345 6.66996C4.77059 6.66803 4.43598 6.56458 4.15186 6.37266C3.86773 6.18074 3.64683 5.90896 3.51702 5.59161C3.38721 5.27426 3.35431 4.92558 3.42249 4.58955C3.49066 4.25353 3.65685 3.94523 3.90007 3.70356C4.14329 3.4619 4.45265 3.2977 4.7891 3.23168C5.12556 3.16567 5.47403 3.2008 5.79053 3.33264C6.10704 3.46449 6.3774 3.68713 6.56749 3.97248C6.75758 4.25783 6.85888 4.5931 6.85861 4.93597C6.86185 5.16552 6.81883 5.39337 6.73213 5.60595C6.64543 5.81852 6.51682 6.01146 6.35397 6.17327C6.19112 6.33508 5.99735 6.46245 5.78423 6.54779C5.5711 6.63312 5.34298 6.67467 5.11345 6.66996ZM17.768 17.61H14.7467V12.3648C14.7467 10.8179 14.0892 10.3404 13.2403 10.3404C12.344 10.3404 11.4644 11.0161 11.4644 12.4039V17.61H8.44182V8.00745H11.3486V9.33796H11.3877C11.6794 8.7474 12.7014 7.738 14.2609 7.738C15.9474 7.738 17.7693 8.73902 17.7693 11.6709L17.768 17.61Z" fill="#0A66C2"/>
</g>
<defs>
<clipPath id="clip0">
<rect width="20.1042" height="20.1042" fill="white" transform="translate(0.634674 0.475342)"/>
</clipPath>
</defs>
</svg>
