<svg width="22" height="21" viewBox="0 0 22 21" fill="none" xmlns="http://www.w3.org/2000/svg">
<path d="M11.2389 0C5.44927 0 0.738892 4.71037 0.738892 10.5C0.738892 16.2896 5.44927 21 11.2389 21C13.0852 21 14.9008 20.5142 16.4902 19.5946L15.1764 17.322C13.9857 18.011 12.6238 18.375 11.2389 18.375C6.89638 18.375 3.36388 14.8425 3.36388 10.5C3.36388 6.15749 6.89638 2.62499 11.2389 2.62499C15.5814 2.62499 19.1139 6.15749 19.1139 10.5V11.6433C19.1139 12.5021 18.5621 13.125 17.8014 13.125C17.0778 13.125 16.4889 12.536 16.4889 11.8125V6.56249H14.6745C13.7512 5.75586 12.5583 5.24998 11.2389 5.24998C8.34408 5.24998 5.98887 7.60519 5.98887 10.5C5.98887 13.3948 8.34408 15.75 11.2389 15.75C12.6174 15.75 13.8637 15.2049 14.8015 14.3327C15.5243 15.1918 16.5934 15.75 17.8014 15.75C20.0092 15.75 21.7389 13.946 21.7389 11.6433V10.5C21.7389 4.71037 17.0285 0 11.2389 0V0ZM11.2389 13.125C9.79115 13.125 8.6139 11.9477 8.6139 10.5C8.6139 9.05225 9.79119 7.87501 11.2389 7.87501C12.6866 7.87501 13.8639 9.0523 13.8639 10.5C13.8639 11.9477 12.6866 13.125 11.2389 13.125Z" fill="white"/>
</svg>
