<svg width="21" height="21" viewBox="0 0 21 21" fill="none" xmlns="http://www.w3.org/2000/svg">
<g clip-path="url(#clip0)">
<path d="M6.6397 18.6954C14.2262 18.6954 18.3758 12.41 18.3758 6.95931C18.3758 6.78078 18.3758 6.60306 18.3637 6.42615C19.1709 5.84225 19.8678 5.11927 20.4216 4.29107C19.6688 4.62481 18.8702 4.84357 18.0525 4.94004C18.9136 4.42461 19.558 3.61382 19.8659 2.65861C19.0562 3.13911 18.1704 3.47771 17.2467 3.6598C16.6248 2.99852 15.8023 2.56064 14.9065 2.41391C14.0106 2.26719 13.0914 2.4198 12.291 2.84814C11.4907 3.27647 10.8538 3.95665 10.479 4.78342C10.1041 5.61018 10.0122 6.53744 10.2175 7.42171C8.57756 7.33944 6.9733 6.91326 5.50878 6.17082C4.04427 5.42839 2.75225 4.38628 1.71658 3.11216C1.18912 4.0202 1.02756 5.09513 1.26482 6.1181C1.50207 7.14107 2.12029 8.03515 2.9936 8.61831C2.33715 8.59908 1.695 8.42199 1.12149 8.10203V8.1543C1.12175 9.10662 1.45141 10.0295 2.05455 10.7665C2.6577 11.5035 3.49719 12.0091 4.43065 12.1977C3.8234 12.3633 3.18626 12.3875 2.56819 12.2684C2.83187 13.088 3.34504 13.8046 4.03597 14.3182C4.72689 14.8318 5.56103 15.1166 6.42177 15.1329C5.56657 15.8051 4.58722 16.3021 3.53976 16.5955C2.49229 16.8888 1.39727 16.9728 0.317322 16.8426C2.20363 18.053 4.39842 18.6951 6.6397 18.6921" fill="white"/>
</g>
<defs>
<clipPath id="clip0">
<rect width="20.1042" height="20.1042" fill="white" transform="translate(0.317322 0.475342)"/>
</clipPath>
</defs>
</svg>
